<?xml version="1.0" encoding="iso-8859-1"?>
<!-- Generator: Adobe Illustrator 19.0.0, SVG Export Plug-In . SVG Version: 6.00 Build 0)  -->
<svg version="1.1" id="Layer_1" xmlns="http://www.w3.org/2000/svg" xmlns:xlink="http://www.w3.org/1999/xlink" x="0px" y="0px"
	 viewBox="0 0 511.999 511.999" style="enable-background:new 0 0 511.999 511.999;" xml:space="preserve">
<path style="fill:#EF4C35;" d="M44.221,414.93v83.057h133.28V414.93H44.221z M63.595,446.728c0-3.269,2.66-5.928,5.928-5.928h80.842
	c3.269,0,5.928,2.659,5.928,5.928s-2.659,5.928-5.928,5.928H69.524C66.256,452.656,63.595,449.998,63.595,446.728z"/>
<path style="fill:#F7971D;" d="M189.359,288.432v209.555h133.28V288.432H189.359z M209.241,320.231c0-3.268,2.66-5.928,5.928-5.928
	h80.842c3.268,0,5.928,2.66,5.928,5.928c0,3.269-2.66,5.928-5.928,5.928h-80.842C211.901,326.16,209.241,323.501,209.241,320.231z"
	/>
<path style="fill:#FCD638;" d="M334.496,152.278v345.71h139.21v-345.71H334.496z M354.786,184.076c0-3.269,2.66-5.928,5.928-5.928
	h80.842c3.269,0,5.928,2.659,5.928,5.928c0,3.269-2.659,5.928-5.928,5.928h-80.842C357.446,190.004,354.786,187.346,354.786,184.076
	z"/>
<g>
	<path style="fill:#202121;" d="M473.706,184.484c4.466,0,8.084-3.618,8.084-8.084v-30.051c0-4.466-3.618-8.084-8.084-8.084H328.567
		c-4.466,0-8.084,3.618-8.084,8.084v128.069H183.431c-4.466,0-8.084,3.618-8.084,8.084v118.413H38.293
		c-4.466,0-8.084,3.618-8.084,8.084v94.914c0,4.466,3.619,8.084,8.084,8.084H183.43h145.137h145.138
		c4.466,0,8.084-3.618,8.084-8.084V208.196c0-4.466-3.618-8.084-8.084-8.084s-8.084,3.618-8.084,8.084v287.636H336.651V282.504
		v-128.07h128.969V176.4C465.622,180.866,469.24,184.484,473.706,184.484z M46.377,417.086h128.968v78.746H46.377V417.086z
		 M191.515,409.002V290.588h128.968v205.243H191.515V409.002z"/>
	<path style="fill:#202121;" d="M150.366,438.644H69.524c-4.466,0-8.084,3.618-8.084,8.084s3.618,8.084,8.084,8.084h80.842
		c4.466,0,8.084-3.618,8.084-8.084S154.832,438.644,150.366,438.644z"/>
	<path style="fill:#202121;" d="M296.012,312.147h-80.842c-4.466,0-8.084,3.618-8.084,8.084s3.618,8.084,8.084,8.084h80.842
		c4.466,0,8.084-3.618,8.084-8.084S300.477,312.147,296.012,312.147z"/>
	<path style="fill:#202121;" d="M360.714,175.991c-4.466,0-8.084,3.618-8.084,8.084s3.618,8.084,8.084,8.084h80.842
		c4.466,0,8.084-3.618,8.084-8.084s-3.618-8.084-8.084-8.084H360.714z"/>
	<path style="fill:#202121;" d="M38.72,373.496c2.068,0,4.138-0.789,5.717-2.367L387.958,27.604V71.22
		c0,4.466,3.618,8.084,8.084,8.084s8.084-3.619,8.084-8.084V8.085c0-4.465-3.618-8.084-8.084-8.084L332.906,0
		c-4.465,0-8.084,3.62-8.084,8.084s3.618,8.084,8.084,8.084l43.62,0.001L33.003,359.694c-3.157,3.158-3.157,8.276,0,11.433
		C34.582,372.706,36.651,373.496,38.72,373.496z"/>
</g>
<g>
	<path style="fill:#DF3126;" d="M163.301,438.644h-12.935c4.466,0,8.084,3.618,8.084,8.084s-3.618,8.084-8.084,8.084h12.935
		c4.466,0,8.084-3.618,8.084-8.084C171.385,442.263,167.767,438.644,163.301,438.644z"/>
	<rect x="46.381" y="417.081" style="fill:#DF3126;" width="12.935" height="78.751"/>
</g>
<g>
	<path style="fill:#F37521;" d="M308.946,312.147h-12.935c4.466,0,8.084,3.618,8.084,8.084s-3.618,8.084-8.084,8.084h12.935
		c4.466,0,8.084-3.618,8.084-8.084C317.031,315.766,313.412,312.147,308.946,312.147z"/>
	<polygon style="fill:#F37521;" points="204.45,290.588 191.515,290.588 191.515,409.002 191.515,495.832 204.45,495.832 
		204.45,409.002 	"/>
</g>
<g>
	<path style="fill:#F9B338;" d="M454.492,175.991h-12.935c4.466,0,8.084,3.618,8.084,8.084s-3.618,8.084-8.084,8.084h12.935
		c4.466,0,8.084-3.618,8.084-8.084C462.576,179.611,458.957,175.991,454.492,175.991z"/>
	<polygon style="fill:#F9B338;" points="349.586,154.434 336.651,154.434 336.651,282.504 336.651,495.832 349.586,495.832 
		349.586,282.504 	"/>
</g>
<g>
</g>
<g>
</g>
<g>
</g>
<g>
</g>
<g>
</g>
<g>
</g>
<g>
</g>
<g>
</g>
<g>
</g>
<g>
</g>
<g>
</g>
<g>
</g>
<g>
</g>
<g>
</g>
<g>
</g>
</svg>
